<svg width="40" height="40" viewBox="0 0 40 40" fill="none" xmlns="http://www.w3.org/2000/svg">
<rect width="40" height="40" rx="8" fill="#43268B"/>
<path d="M16 22C19.3137 22 22 19.3137 22 16C22 12.6863 19.3137 10 16 10C12.6863 10 10 12.6863 10 16C10 19.3137 12.6863 22 16 22Z" stroke="white" stroke-width="2" stroke-linecap="round" stroke-linejoin="round"/>
<path d="M26.09 18.3701C27.0353 18.7225 27.8765 19.3076 28.5358 20.0713C29.195 20.835 29.6511 21.7526 29.8618 22.7392C30.0724 23.7258 30.0309 24.7496 29.7411 25.716C29.4512 26.6823 28.9224 27.5599 28.2035 28.2677C27.4845 28.9755 26.5987 29.4906 25.628 29.7653C24.6573 30.0401 23.6329 30.0656 22.6497 29.8396C21.6665 29.6135 20.7561 29.1432 20.0029 28.4721C19.2496 27.801 18.6777 26.9508 18.34 26.0001" stroke="white" stroke-width="2" stroke-linecap="round" stroke-linejoin="round"/>
<path d="M15 14H16V18" stroke="white" stroke-width="2" stroke-linecap="round" stroke-linejoin="round"/>
<path d="M24.71 21.8799L25.41 22.5899L22.59 25.4099" stroke="white" stroke-width="2" stroke-linecap="round" stroke-linejoin="round"/>
</svg>
